<svg xmlns="http://www.w3.org/2000/svg" viewBox="-2 -2 68 68"><defs><clipPath id="cat-mark-clip-tab"><path d="M4 46L4 13Q4 4 12 8L23 15Q26 17 30 17H34Q38 17 41 15L52 8Q60 4 60 13V46Q60 60 46 60H18Q4 60 4 46Z"/></clipPath></defs><path d="M4 46L4 13Q4 4 12 8L23 15Q26 17 30 17H34Q38 17 41 15L52 8Q60 4 60 13V46Q60 60 46 60H18Q4 60 4 46Z" fill="none" stroke="#131313" stroke-width="10.67" stroke-linejoin="round"/><path d="M4 46L4 13Q4 4 12 8L23 15Q26 17 30 17H34Q38 17 41 15L52 8Q60 4 60 13V46Q60 60 46 60H18Q4 60 4 46Z" fill="#f4efe8"/><g clip-path="url(#cat-mark-clip-tab)"><path d="M0 0H31Q34 14 28 24Q20 31 0 31Z" fill="#d38b45"/></g><path d="M14 40L21 31L28 40M36 40L43 31L50 40" fill="none" stroke="#131313" stroke-width="6.5" stroke-linecap="round" stroke-linejoin="round"/><path d="M4 46L4 13Q4 4 12 8L23 15Q26 17 30 17H34Q38 17 41 15L52 8Q60 4 60 13V46Q60 60 46 60H18Q4 60 4 46Z" fill="none" stroke="#5a87a8" stroke-width="4.67" stroke-linejoin="round"/></svg>
