<svg xmlns="http://www.w3.org/2000/svg" viewBox="8 7.5 84 90">
  <mask id="page" maskUnits="userSpaceOnUse" x="0" y="0" width="100" height="100">
    <rect width="100" height="100" fill="#fff"/>
    <g fill="none" stroke="#000" stroke-linecap="round" stroke-linejoin="round">
      <path d="M50 31V83" stroke-width="2.6"/>
      <path d="M17.5 36H41M17.5 46.5H41M17.5 57H41M17.5 67.5H34" stroke-width="3.4"/>
      <path d="M70.5 72C70 64 71.6 56.5 71 49" stroke-width="3.4"/>
    </g>
    <g fill="#000">
      <path d="M70.7 62C65 61.5 61.6 58 60.6 54C65.6 54 69.6 57 70.7 62Z"/>
      <circle cx="71" cy="31.5" r="5.9"/>
      <circle cx="79.1" cy="37.4" r="5.9"/>
      <circle cx="76" cy="46.9" r="5.9"/>
      <circle cx="66" cy="46.9" r="5.9"/>
      <circle cx="62.9" cy="37.4" r="5.9"/>
    </g>
    <circle cx="71" cy="40" r="4.1" fill="#fff"/>
  </mask>
  <path mask="url(#page)" fill="#131313" d="M50 28C38.5 21 24 19 8.5 21.5V79C24.5 77 38.5 79.5 50 86C61.5 79.5 75.5 77 91.5 79V21.5C76 19 61.5 21 50 28Z"/>
</svg>
